<?xml version="1.0" encoding="UTF-8"?>
<!-- Created with Inkscape (http://www.inkscape.org/) -->
<svg width="67.15mm" height="81.335mm" version="1.1" viewBox="0 0 67.15 81.335" xmlns="http://www.w3.org/2000/svg">
 <path d="m50.498 8.851c0 4.499-3.647 8.146-8.146 8.146h-17.557c-4.499 0-8.146-3.647-8.146-8.146 0-4.4986 3.647-8.1456 8.146-8.1456h17.557c4.499 0 8.146 3.647 8.146 8.1456" style="fill:#ffd42a"/>
 <path d="m59.548 30.142c-1.1434-13.229-13.23-9.6361-13.23-9.6361v41.391c2.4472 0.4124 4.9594 0.97402 7.5131 1.7276l3.7973-3.7976 0.0455-0.0363-0.0861-0.0861s3.103-16.333 1.9597-29.562" style="fill:#a7acb3"/>
 <path d="m7.75 61.522-3.2463-2.7562s-3.7973-1.5924-3.7973 4.6549c0 6.2474 2.94 16.414 2.94 16.414h7.5946v-14.741l-3.4911-3.5722" style="fill:#a7acb3"/>
 <path d="m66.448 63.422c0-6.2473-3.7973-4.6549-3.7973-4.6549l-3.2459 2.7562-2.4702 2.6067v15.706h6.5737s2.9397-10.167 2.9397-16.414" style="fill:#a7acb3"/>
 <path d="m13.976 67.892v11.942h39.852v-12.432c-21.314-6.2883-39.852 0.48965-39.852 0.48965" style="fill:#a7acb3"/>
 <path d="m33.578 20.512h-12.74v41.403-41.403s-0.06703-0.0194-0.18062-0.0483v41.908c5.8917-1.1836 15.156-2.2391 25.659-0.46919v-41.391h-12.739" style="fill:#ffd42a"/>
 <path d="m7.607 30.142c-1.1434 13.23 1.96 29.562 1.96 29.562l4.4097 4.4097s2.4878-0.90629 6.6791-1.748v-41.908c-1.4866-0.37818-11.987-2.6056-13.049 9.6845" style="fill:#a7acb3"/>
 <path d="m60.458 60.462-1.7307-1.7311c-0.54152-0.54222-1.4496-0.55104-2.0454-0.0706-0.0416 0.0339-0.0811 0.0688-0.11853 0.10689l-3.1729 3.1729c-5.896-1.6506-12.112-2.4874-18.489-2.4874-10.247 0-17.952 2.1315-20.525 2.9468l-3.7543-3.7543c-0.58526-0.58526-1.5332-0.58526-2.1184 0l-1.8172 1.8168c-0.58032 0.57996-0.58561 1.5191-0.01199 2.1057l6.2269 6.3715c0.28681 0.29386 0.67557 0.4512 1.0721 0.4512 0.1718 0 0.34502-0.03 0.51259-0.0907 0.08467-0.0307 8.5778-3.0727 20.415-3.0727 6.4008 0 12.625 0.87912 18.5 2.612 0.54081 0.16158 1.1236 3e-3 1.5109-0.40605l5.5735-5.8812c0.5581-0.58985 0.5461-1.5155-0.0279-2.0899" style="fill:#3e4445"/>
 <path d="m28.578 15.499h-4.1649c-0.82726 0-1.4982 0.67063-1.4982 1.4979v3.5116c0 0.82726 0.67098 1.4979 1.4982 1.4979h4.1649c0.82726 0 1.4979-0.67064 1.4979-1.4979v-3.5116c0-0.82726-0.67063-1.4979-1.4979-1.4979" style="fill:#3e4445"/>
 <path d="m42.658 15.499h-4.1649c-0.82726 0-1.4979 0.67063-1.4979 1.4979v3.5116c0 0.82726 0.67063 1.4979 1.4979 1.4979h4.1649c0.82691 0 1.4979-0.67064 1.4979-1.4979v-3.5116c0-0.82726-0.67098-1.4979-1.4979-1.4979" style="fill:#3e4445"/>
 <path d="m50.498 8.851c0 4.499-3.647 8.146-8.146 8.146h-17.557c-4.499 0-8.146-3.647-8.146-8.146v0c0-4.4986 3.647-8.1456 8.146-8.1456h17.557c4.499 0 8.146 3.647 8.146 8.1456z" style="fill:none;stroke-linecap:round;stroke-linejoin:round;stroke-miterlimit:10;stroke-width:1.4111;stroke:#3e4445"/>
 <path d="m59.548 30.142c-1.1434-13.229-13.23-9.6361-13.23-9.6361v41.391c2.4472 0.4124 4.9594 0.97402 7.5131 1.7276l3.7973-3.7976 0.0455-0.0363-0.0861-0.0861s3.103-16.333 1.9597-29.562z" style="fill:none;stroke-linecap:round;stroke-linejoin:round;stroke-miterlimit:10;stroke-width:1.4111;stroke:#3e4445"/>
 <path d="m7.75 61.522-3.2463-2.7562s-3.7973-1.5924-3.7973 4.6549c0 6.2474 2.94 16.414 2.94 16.414h7.5946v-14.741z" style="fill:none;stroke-linecap:round;stroke-linejoin:round;stroke-miterlimit:10;stroke-width:1.4111;stroke:#3e4445"/>
 <path d="m15.047 66.852-2.7358-2.7993c-0.4258-0.43498-1.0717-0.57045-1.6365-0.34008-0.56409 0.23036-0.93274 0.77823-0.93274 1.3875v14.74c0 0.82726 0.67098 1.4979 1.4979 1.4979h2.7361c0.82726 0 1.4979-0.67063 1.4979-1.4979v-11.941c0-0.39124-0.15346-0.7673-0.42686-1.0474" style="fill:#3e4445"/>
 <path d="m66.448 63.422c0-6.2473-3.7973-4.6549-3.7973-4.6549l-3.2459 2.7562-2.4702 2.6067v15.706h6.5737s2.9397-10.167 2.9397-16.414z" style="fill:none;stroke-linecap:round;stroke-linejoin:round;stroke-miterlimit:10;stroke-width:1.4111;stroke:#3e4445"/>
 <path d="m57.488 62.742c-0.57009-0.22966-1.2206-0.0847-1.6418 0.36054l-3.103 3.2748c-0.26353 0.27834-0.41063 0.64735-0.41063 1.0305v12.431c0 0.82726 0.67062 1.4979 1.4979 1.4979h3.103c0.82727 0 1.4979-0.67063 1.4979-1.4979v-15.706c0-0.61313-0.37359-1.1645-0.94332-1.3914" style="fill:#3e4445"/>
 <path d="m13.976 67.892v11.942h39.852v-12.432c-21.314-6.2883-39.852 0.48965-39.852 0.48965z" style="fill:none;stroke-linecap:round;stroke-linejoin:round;stroke-miterlimit:10;stroke-width:1.4111;stroke:#3e4445"/>
 <path d="m33.578 20.512h-12.74v41.403-41.403s-0.06703-0.0194-0.18062-0.0483v41.908c5.8917-1.1836 15.156-2.2391 25.659-0.46919v-41.391z" style="fill:none;stroke-linecap:round;stroke-linejoin:round;stroke-miterlimit:10;stroke-width:1.4111;stroke:#3e4445"/>
 <path d="m7.607 30.142c-1.1434 13.23 1.96 29.562 1.96 29.562l4.4097 4.4097s2.4878-0.90629 6.6791-1.748v-41.908c-1.4866-0.37818-11.987-2.6056-13.049 9.6845z" style="fill:none;stroke-linecap:round;stroke-linejoin:round;stroke-miterlimit:10;stroke-width:1.4111;stroke:#3e4445"/>
</svg>
